{
    "asset" : {
        "generator" : "Khronos glTF Blender I/O v1.7.33",
        "version" : "2.0"
    },
    "scene" : 0,
    "scenes" : [
        {
            "name" : "Scene",
            "nodes" : [
                7
            ]
        }
    ],
    "nodes" : [
        {
            "name" : "Bone.005",
            "rotation" : [
                0.013538828119635582,
                5.5094965034641064e-08,
                -0.030399981886148453,
                0.9994461536407471
            ],
            "translation" : [
                2.0857553906239445e-08,
                0.37612712383270264,
                -9.250849863917665e-09
            ]
        },
        {
            "children" : [
                0
            ],
            "name" : "Bone.004",
            "rotation" : [
                -0.013538823463022709,
                -5.931736524189546e-08,
                0.03039996698498726,
                0.9994462132453918
            ],
            "scale" : [
                0.9999999403953552,
                0.9999998807907104,
                0.9999998807907104
            ],
            "translation" : [
                4.879866732920846e-09,
                0.3210848271846771,
                6.7187198027340855e-09
            ]
        },
        {
            "children" : [
                1
            ],
            "name" : "Bone.003",
            "rotation" : [
                0.003081863047555089,
                6.875977565101721e-10,
                -0.006919979117810726,
                0.999971330165863
            ],
            "scale" : [
                0.9999998807907104,
                0.9999999403953552,
                0.9999999403953552
            ],
            "translation" : [
                -5.1540287593354606e-09,
                0.27524715662002563,
                -8.399226203437138e-09
            ]
        },
        {
            "children" : [
                2
            ],
            "name" : "Bone.002",
            "rotation" : [
                -0.00937335193157196,
                2.1906451763697987e-08,
                0.02104685828089714,
                0.99973464012146
            ],
            "scale" : [
                0.9999998807907104,
                1,
                1
            ],
            "translation" : [
                -7.275957614183426e-11,
                0.2966241240501404,
                3.4560798667371273e-09
            ]
        },
        {
            "children" : [
                3
            ],
            "name" : "Bone.001",
            "rotation" : [
                0.0852120891213417,
                3.5936537301495264e-08,
                0.02121066115796566,
                0.9961371421813965
            ],
            "translation" : [
                0,
                0.34431982040405273,
                0
            ]
        },
        {
            "children" : [
                4
            ],
            "name" : "Bone",
            "translation" : [
                0,
                -0.9318881034851074,
                0
            ]
        },
        {
            "extras" : {
                "sparkar_optimization" : {
                    "InvertedReducePercentage" : 0.0
                },
                "spark_blender_addon" : 1
            },
            "mesh" : 0,
            "name" : "Plane",
            "skin" : 0
        },
        {
            "children" : [
                6,
                5
            ],
            "name" : "Armature"
        }
    ],
    "animations" : [
        {
            "channels" : [
                {
                    "sampler" : 0,
                    "target" : {
                        "node" : 4,
                        "path" : "rotation"
                    }
                },
                {
                    "sampler" : 1,
                    "target" : {
                        "node" : 3,
                        "path" : "rotation"
                    }
                },
                {
                    "sampler" : 2,
                    "target" : {
                        "node" : 2,
                        "path" : "rotation"
                    }
                },
                {
                    "sampler" : 3,
                    "target" : {
                        "node" : 1,
                        "path" : "rotation"
                    }
                },
                {
                    "sampler" : 4,
                    "target" : {
                        "node" : 0,
                        "path" : "rotation"
                    }
                }
            ],
            "name" : "ArmatureAction",
            "samplers" : [
                {
                    "input" : 7,
                    "interpolation" : "CUBICSPLINE",
                    "output" : 8
                },
                {
                    "input" : 7,
                    "interpolation" : "CUBICSPLINE",
                    "output" : 9
                },
                {
                    "input" : 7,
                    "interpolation" : "CUBICSPLINE",
                    "output" : 10
                },
                {
                    "input" : 7,
                    "interpolation" : "CUBICSPLINE",
                    "output" : 11
                },
                {
                    "input" : 7,
                    "interpolation" : "CUBICSPLINE",
                    "output" : 12
                }
            ]
        }
    ],
    "meshes" : [
        {
            "name" : "Plane",
            "primitives" : [
                {
                    "attributes" : {
                        "POSITION" : 0,
                        "NORMAL" : 1,
                        "TEXCOORD_0" : 2,
                        "JOINTS_0" : 3,
                        "WEIGHTS_0" : 4
                    },
                    "indices" : 5
                }
            ]
        }
    ],
    "skins" : [
        {
            "inverseBindMatrices" : 6,
            "joints" : [
                5,
                4,
                3,
                2,
                1,
                0
            ],
            "name" : "Armature"
        }
    ],
    "accessors" : [
        {
            "bufferView" : 0,
            "componentType" : 5126,
            "count" : 4225,
            "max" : [
                1.0200022459030151,
                1.0138651132583618,
                0.6015691161155701
            ],
            "min" : [
                -1.0260356664657593,
                -1.0295114517211914,
                0.01667875424027443
            ],
            "type" : "VEC3"
        },
        {
            "bufferView" : 1,
            "componentType" : 5126,
            "count" : 4225,
            "type" : "VEC3"
        },
        {
            "bufferView" : 2,
            "componentType" : 5126,
            "count" : 4225,
            "type" : "VEC2"
        },
        {
            "bufferView" : 3,
            "componentType" : 5121,
            "count" : 4225,
            "type" : "VEC4"
        },
        {
            "bufferView" : 4,
            "componentType" : 5126,
            "count" : 4225,
            "type" : "VEC4"
        },
        {
            "bufferView" : 5,
            "componentType" : 5123,
            "count" : 24576,
            "type" : "SCALAR"
        },
        {
            "bufferView" : 6,
            "componentType" : 5126,
            "count" : 6,
            "type" : "MAT4"
        },
        {
            "bufferView" : 7,
            "componentType" : 5126,
            "count" : 5,
            "max" : [
                8.625
            ],
            "min" : [
                0.041666666666666664
            ],
            "type" : "SCALAR"
        },
        {
            "bufferView" : 8,
            "componentType" : 5126,
            "count" : 15,
            "type" : "VEC4"
        },
        {
            "bufferView" : 9,
            "componentType" : 5126,
            "count" : 15,
            "type" : "VEC4"
        },
        {
            "bufferView" : 10,
            "componentType" : 5126,
            "count" : 15,
            "type" : "VEC4"
        },
        {
            "bufferView" : 11,
            "componentType" : 5126,
            "count" : 15,
            "type" : "VEC4"
        },
        {
            "bufferView" : 12,
            "componentType" : 5126,
            "count" : 15,
            "type" : "VEC4"
        }
    ],
    "bufferViews" : [
        {
            "buffer" : 0,
            "byteLength" : 50700,
            "byteOffset" : 0
        },
        {
            "buffer" : 0,
            "byteLength" : 50700,
            "byteOffset" : 50700
        },
        {
            "buffer" : 0,
            "byteLength" : 33800,
            "byteOffset" : 101400
        },
        {
            "buffer" : 0,
            "byteLength" : 16900,
            "byteOffset" : 135200
        },
        {
            "buffer" : 0,
            "byteLength" : 67600,
            "byteOffset" : 152100
        },
        {
            "buffer" : 0,
            "byteLength" : 49152,
            "byteOffset" : 219700
        },
        {
            "buffer" : 0,
            "byteLength" : 384,
            "byteOffset" : 268852
        },
        {
            "buffer" : 0,
            "byteLength" : 20,
            "byteOffset" : 269236
        },
        {
            "buffer" : 0,
            "byteLength" : 240,
            "byteOffset" : 269256
        },
        {
            "buffer" : 0,
            "byteLength" : 240,
            "byteOffset" : 269496
        },
        {
            "buffer" : 0,
            "byteLength" : 240,
            "byteOffset" : 269736
        },
        {
            "buffer" : 0,
            "byteLength" : 240,
            "byteOffset" : 269976
        },
        {
            "buffer" : 0,
            "byteLength" : 240,
            "byteOffset" : 270216
        }
    ],
    "buffers" : [
        {
            "byteLength" : 270456,
            "uri" : "data:application/octet-stream;base64,"
        }
    ]
}
